<?xml version="1.0" encoding="UTF-8" standalone="no"?>
<!DOCTYPE svg PUBLIC "-//W3C//DTD SVG 1.1//EN"
 "http://www.w3.org/Graphics/SVG/1.1/DTD/svg11.dtd">
<!-- Generated by graphviz version 2.42.3 ()
 -->
<!-- Title: breadcrumb Pages: 1 -->
<svg width="899pt" height="79pt"
 viewBox="0.00 0.00 899.00 79.00" xmlns="http://www.w3.org/2000/svg" xmlns:xlink="http://www.w3.org/1999/xlink">
<g id="graph0" class="graph" transform="scale(1 1) rotate(0) translate(4 75)">
<title>breadcrumb</title>
<polygon fill="white" stroke="transparent" points="-4,4 -4,-75 895,-75 895,4 -4,4"/>
<g id="clust1" class="cluster">
<title>cluster_provider</title>
<path fill="lightgrey" stroke="lightgrey" d="M20,-8C20,-8 871,-8 871,-8 877,-8 883,-14 883,-20 883,-20 883,-51 883,-51 883,-57 877,-63 871,-63 871,-63 20,-63 20,-63 14,-63 8,-57 8,-51 8,-51 8,-20 8,-20 8,-14 14,-8 20,-8"/>
<text text-anchor="middle" x="54" y="-51" font-family="'DejaVu Sans:style=Book'" font-size="10.00">BIG&#45;IP APM</text>
</g>
<!-- idp -->
<g id="node1" class="node">
<title>idp</title>
<path fill="palegreen" stroke="palegreen" d="M63.67,-35.5C63.67,-35.5 22.33,-35.5 22.33,-35.5 19.17,-35.5 16,-32.33 16,-29.17 16,-29.17 16,-22.83 16,-22.83 16,-19.67 19.17,-16.5 22.33,-16.5 22.33,-16.5 63.67,-16.5 63.67,-16.5 66.83,-16.5 70,-19.67 70,-22.83 70,-22.83 70,-29.17 70,-29.17 70,-32.33 66.83,-35.5 63.67,-35.5"/>
<text text-anchor="middle" x="43" y="-23.5" font-family="'DejaVu Sans:style=Book'" font-size="10.00">IDP</text>
</g>
<!-- spconnector -->
<g id="node2" class="node">
<title>spconnector</title>
<path fill="palegreen" stroke="palegreen" d="M191.67,-35.5C191.67,-35.5 105.33,-35.5 105.33,-35.5 102.17,-35.5 99,-32.33 99,-29.17 99,-29.17 99,-22.83 99,-22.83 99,-19.67 102.17,-16.5 105.33,-16.5 105.33,-16.5 191.67,-16.5 191.67,-16.5 194.83,-16.5 198,-19.67 198,-22.83 198,-22.83 198,-29.17 198,-29.17 198,-32.33 194.83,-35.5 191.67,-35.5"/>
<text text-anchor="middle" x="148.5" y="-23.5" font-family="'DejaVu Sans:style=Book'" font-size="10.00">SP Connector</text>
</g>
<!-- idp&#45;&gt;spconnector -->
<g id="edge1" class="edge">
<title>idp&#45;&gt;spconnector</title>
<path fill="none" stroke="black" d="M70.12,-26C75.86,-26 82.16,-26 88.61,-26"/>
<polygon fill="black" stroke="black" points="88.81,-29.5 98.81,-26 88.81,-22.5 88.81,-29.5"/>
</g>
<!-- bind -->
<g id="node3" class="node">
<title>bind</title>
<path fill="palegreen" stroke="palegreen" d="M341.67,-35.5C341.67,-35.5 233.33,-35.5 233.33,-35.5 230.17,-35.5 227,-32.33 227,-29.17 227,-29.17 227,-22.83 227,-22.83 227,-19.67 230.17,-16.5 233.33,-16.5 233.33,-16.5 341.67,-16.5 341.67,-16.5 344.83,-16.5 348,-19.67 348,-22.83 348,-22.83 348,-29.17 348,-29.17 348,-32.33 344.83,-35.5 341.67,-35.5"/>
<text text-anchor="middle" x="287.5" y="-23.5" font-family="'DejaVu Sans:style=Book'" font-size="10.00">Bind Connectors</text>
</g>
<!-- spconnector&#45;&gt;bind -->
<g id="edge2" class="edge">
<title>spconnector&#45;&gt;bind</title>
<path fill="none" stroke="black" d="M198.19,-26C204.1,-26 210.23,-26 216.37,-26"/>
<polygon fill="black" stroke="black" points="216.7,-29.5 226.7,-26 216.7,-22.5 216.7,-29.5"/>
</g>
<!-- resource -->
<g id="node4" class="node">
<title>resource</title>
<path fill="palegreen" stroke="palegreen" d="M476.67,-35.5C476.67,-35.5 383.33,-35.5 383.33,-35.5 380.17,-35.5 377,-32.33 377,-29.17 377,-29.17 377,-22.83 377,-22.83 377,-19.67 380.17,-16.5 383.33,-16.5 383.33,-16.5 476.67,-16.5 476.67,-16.5 479.83,-16.5 483,-19.67 483,-22.83 483,-22.83 483,-29.17 483,-29.17 483,-32.33 479.83,-35.5 476.67,-35.5"/>
<text text-anchor="middle" x="430" y="-23.5" font-family="'DejaVu Sans:style=Book'" font-size="10.00">SAML Resource</text>
</g>
<!-- bind&#45;&gt;resource -->
<g id="edge3" class="edge">
<title>bind&#45;&gt;resource</title>
<path fill="none" stroke="black" d="M348.08,-26C354.22,-26 360.46,-26 366.62,-26"/>
<polygon fill="black" stroke="black" points="366.88,-29.5 376.88,-26 366.88,-22.5 366.88,-29.5"/>
</g>
<!-- webtop -->
<g id="node5" class="node">
<title>webtop</title>
<path fill="#63b8ff" stroke="#63b8ff" d="M559.67,-35.5C559.67,-35.5 518.33,-35.5 518.33,-35.5 515.17,-35.5 512,-32.33 512,-29.17 512,-29.17 512,-22.83 512,-22.83 512,-19.67 515.17,-16.5 518.33,-16.5 518.33,-16.5 559.67,-16.5 559.67,-16.5 562.83,-16.5 566,-19.67 566,-22.83 566,-22.83 566,-29.17 566,-29.17 566,-32.33 562.83,-35.5 559.67,-35.5"/>
<text text-anchor="middle" x="539" y="-23.5" font-family="'DejaVu Sans:style=Book'" font-size="10.00">Webtop</text>
</g>
<!-- resource&#45;&gt;webtop -->
<g id="edge4" class="edge">
<title>resource&#45;&gt;webtop</title>
<path fill="none" stroke="black" d="M483.25,-26C489.48,-26 495.74,-26 501.68,-26"/>
<polygon fill="black" stroke="black" points="501.95,-29.5 511.95,-26 501.95,-22.5 501.95,-29.5"/>
</g>
<!-- profile -->
<g id="node6" class="node">
<title>profile</title>
<path fill="#b8b8b8" stroke="#b8b8b8" d="M702.67,-35.5C702.67,-35.5 601.33,-35.5 601.33,-35.5 598.17,-35.5 595,-32.33 595,-29.17 595,-29.17 595,-22.83 595,-22.83 595,-19.67 598.17,-16.5 601.33,-16.5 601.33,-16.5 702.67,-16.5 702.67,-16.5 705.83,-16.5 709,-19.67 709,-22.83 709,-22.83 709,-29.17 709,-29.17 709,-32.33 705.83,-35.5 702.67,-35.5"/>
<text text-anchor="middle" x="652" y="-23.5" font-family="'DejaVu Sans:style=Book'" font-size="10.00">Access Profile</text>
</g>
<!-- webtop&#45;&gt;profile -->
<g id="edge5" class="edge">
<title>webtop&#45;&gt;profile</title>
<path fill="none" stroke="black" d="M566.02,-26C571.74,-26 578.05,-26 584.57,-26"/>
<polygon fill="black" stroke="black" points="584.93,-29.5 594.93,-26 584.93,-22.5 584.93,-29.5"/>
</g>
<!-- vs -->
<g id="node7" class="node">
<title>vs</title>
<path fill="#b8b8b8" stroke="#b8b8b8" d="M785.67,-35.5C785.67,-35.5 744.33,-35.5 744.33,-35.5 741.17,-35.5 738,-32.33 738,-29.17 738,-29.17 738,-22.83 738,-22.83 738,-19.67 741.17,-16.5 744.33,-16.5 744.33,-16.5 785.67,-16.5 785.67,-16.5 788.83,-16.5 792,-19.67 792,-22.83 792,-22.83 792,-29.17 792,-29.17 792,-32.33 788.83,-35.5 785.67,-35.5"/>
<text text-anchor="middle" x="765" y="-23.5" font-family="'DejaVu Sans:style=Book'" font-size="10.00">VS</text>
</g>
<!-- profile&#45;&gt;vs -->
<g id="edge6" class="edge">
<title>profile&#45;&gt;vs</title>
<path fill="none" stroke="black" d="M709.15,-26C715.4,-26 721.64,-26 727.55,-26"/>
<polygon fill="black" stroke="black" points="727.77,-29.5 737.77,-26 727.77,-22.5 727.77,-29.5"/>
</g>
<!-- test -->
<g id="node8" class="node">
<title>test</title>
<path fill="#b8b8b8" stroke="#b8b8b8" d="M868.67,-35.5C868.67,-35.5 827.33,-35.5 827.33,-35.5 824.17,-35.5 821,-32.33 821,-29.17 821,-29.17 821,-22.83 821,-22.83 821,-19.67 824.17,-16.5 827.33,-16.5 827.33,-16.5 868.67,-16.5 868.67,-16.5 871.83,-16.5 875,-19.67 875,-22.83 875,-22.83 875,-29.17 875,-29.17 875,-32.33 871.83,-35.5 868.67,-35.5"/>
<text text-anchor="middle" x="848" y="-23.5" font-family="'DejaVu Sans:style=Book'" font-size="10.00">Test</text>
</g>
<!-- vs&#45;&gt;test -->
<g id="edge7" class="edge">
<title>vs&#45;&gt;test</title>
<path fill="none" stroke="black" d="M792.07,-26C798,-26 804.4,-26 810.66,-26"/>
<polygon fill="black" stroke="black" points="810.97,-29.5 820.97,-26 810.97,-22.5 810.97,-29.5"/>
</g>
</g>
</svg>
